# xmcd
#
# Track frame offsets:
#	150
#	17273
#	33445
#	47685
#	67723
#	83332
#	96001
#	109427
#	126083
#	140982
#	159128
#	177591
#	196697
#	210029
#	227731
#	243707
#	257307
#	274875
#	288747
#	304092
#	321531
#
# Disc length: 4528 seconds
#
# Revision: 3
# Processed by: cddbd v1.5.2PL0 Copyright (c) Steve Scherf et al.
# Submitted via: EasyCDDAExtractor 11.5.0.1
#
DISCID=1d11ae15
DTITLE=Various Artist - NCT 063
DYEAR=2004
DGENRE=Country
TTITLE0=Keith Urban - Days Go By
TTITLE1=Darryl Worley - Awful Beautiful Life
TTITLE2=Alan Jackson - Too Much Of A Good Thing Is A Good Thing
TTITLE3=John Michael Montgomery - Goes Good With Beer
TTITLE4=Gretchen Wilson - Here For The Party
TTITLE5=Loretta Lynn - Miss Being Mrs
TTITLE6=Trick Pony - The Bride
TTITLE7=Montgomery Gentry - You Do Your Thing
TTITLE8=Clay Walker - Jesus Was A Country Boy
TTITLE9=SheDaisy - Come Home Soon
TTITLE10=Kellie Coffey - Dance With My Father
TTITLE11=Sugarland - Baby Girl
TTITLE12=Shannon Lawson - Just Like A Redneck
TTITLE13=Reckless Kelly - Vancouver
TTITLE14=Hal Ketchum - My Love Will Not Change
TTITLE15=Norah Jones ft. Dolly Parton - Creepin' In
TTITLE16=Kid Rock - Single Father
TTITLE17=Tracy Lawrence - It's All How You Look At It
TTITLE18=Rascal Flatts - Feels Like Today
TTITLE19=Anita Cochran - (I Wanna Hear) A Cheatin' Song
TTITLE20=Mark Chesnutt - The Lord Loves The Drinkin' Man
EXTD=
EXTT0=
EXTT1=
EXTT2=
EXTT3=
EXTT4=
EXTT5=
EXTT6=
EXTT7=
EXTT8=
EXTT9=
EXTT10=
EXTT11=
EXTT12=
EXTT13=
EXTT14=
EXTT15=
EXTT16=
EXTT17=
EXTT18=
EXTT19=
EXTT20=
PLAYORDER=
